PathFileType  4	(X/Y/Z) C:\Users\antoi\Documents\MyRepositories\mobilecap\ResultsAnalysis
DataRate	CameraRate	NumFrames	NumMarkers	Units	OrigDataRate	OrigDataStartFrame	OrigNumFrames
100.0	100.0	7	51	mm	100.0	601	801
Frame#	Time	r_knee			r_shank_antsup			r_ankle			r_calc			r_5meta			r_toe			L_knee			L_shank_antsup			L_ankle			L_calc			L_5meta			L_toe			r_sh2			r_sh3			r_sh4			L_sh2			L_sh3			r_thigh1			r_thigh2			r_thigh3			r_thigh4			r_thigh5			L_thigh1			L_thigh2			L_thigh3			L_thigh4			r.ASIS			r.PSIS			L.ASIS			L.PSIS			C7			R_Shoulder			L_Shoulder			R_Sternum			L_Sternum			R_humerus			R_elbow_med			R_elbow_lat			R_forearm			R_wrist_radius			R_wrist_ulna			L_humerus			L_elbow_med			L_elbow_lat			L_forearm			L_wrist_radius			L_wrist_ulna			R_HJC			L_HJC			R_HJC_reg			L_HJC_reg			
		X1	Y1	Z1	X2	Y2	Z2	X3	Y3	Z3	X4	Y4	Z4	X5	Y5	Z5	X6	Y6	Z6	X7	Y7	Z7	X8	Y8	Z8	X9	Y9	Z9	X10	Y10	Z10	X11	Y11	Z11	X12	Y12	Z12	X13	Y13	Z13	X14	Y14	Z14	X15	Y15	Z15	X16	Y16	Z16	X17	Y17	Z17	X18	Y18	Z18	X19	Y19	Z19	X20	Y20	Z20	X21	Y21	Z21	X22	Y22	Z22	X23	Y23	Z23	X24	Y24	Z24	X25	Y25	Z25	X26	Y26	Z26	X27	Y27	Z27	X28	Y28	Z28	X29	Y29	Z29	X30	Y30	Z30	X31	Y31	Z31	X32	Y32	Z32	X33	Y33	Z33	X34	Y34	Z34	X35	Y35	Z35	X36	Y36	Z36	X37	Y37	Z37	X38	Y38	Z38	X39	Y39	Z39	X40	Y40	Z40	X41	Y41	Z41	X42	Y42	Z42	X43	Y43	Z43	X44	Y44	Z44	X45	Y45	Z45	X46	Y46	Z46	X47	Y47	Z47	X48	Y48	Z48	X49	Y49	Z49	X50	Y50	Z50	X51	Y51	Z51	

601	6.00000000	-233.07094	610.29962	-353.78620	-206.11398	462.84054	-338.41991	-295.53421	104.52941	-303.29176	-353.48970	71.61607	-364.87743	-159.32651	44.73572	-270.01160	-122.18820	75.52440	-320.06596	-237.71705	606.56933	-852.02627	-195.82272	405.45266	-859.48949	-305.17844	114.44106	-883.19515	-359.23414	72.75202	-820.58473	-165.57325	35.89876	-926.81801	-121.91770	70.16865	-871.36165	-218.51671	350.47709	-330.51889	-273.58992	470.33400	-307.07775	-288.62641	360.34514	-288.37850	-270.63930	428.21680	-903.62976	-292.80835	310.80479	-897.92247	-302.03237	899.78484	-369.69927	-251.80860	800.11743	-353.77722	-299.99280	750.33434	-347.24775	-397.72213	847.39423	-403.24392	-347.79637	742.12456	-375.40825	-271.26760	903.19221	-818.41953	-226.91417	775.70851	-835.25575	-377.35169	870.88606	-817.85907	-330.71059	745.12540	-848.66599	-297.86031	1121.16248	-456.66331	-461.11649	1197.72805	-556.94427	-288.35603	1107.15154	-724.95259	-453.24365	1197.10650	-648.03939	-185.32824	1609.63364	-607.80514	-98.39228	1546.57578	-445.18182	-120.94060	1576.33188	-765.32343	-69.87463	1492.23191	-584.89285	-71.35019	1489.68675	-624.94112	-48.61814	1302.45595	-371.77993	-107.83916	1153.26771	-367.58699	-61.59226	1191.26145	-299.61142	106.56583	1200.30397	-432.72982	175.06628	1205.88065	-485.87872	180.10728	1170.81966	-477.81416	-31.43303	1322.60558	-827.10856	-96.32127	1205.05956	-845.65965	-30.64002	1232.35564	-889.38859	124.12722	1219.51369	-751.68757	171.14620	1221.46264	-694.09328	178.99029	1193.26700	-712.09304	-397.28604	1049.88052	-494.31691	-392.55429	1045.18221	-691.68088	-388.05514	1053.58072	-502.22415	-372.78062	1052.37511	-678.98528	
602	6.01000000	-233.19132	610.63607	-354.16310	-206.80136	463.12452	-338.67851	-295.45183	104.57232	-303.17561	-353.41180	71.67708	-364.80502	-159.35788	44.56311	-270.17366	-122.00031	75.12943	-320.04094	-238.33646	607.05663	-850.27177	-196.65988	405.97901	-857.92681	-305.00307	114.66466	-883.03804	-359.06204	72.89280	-820.51952	-165.47566	36.00488	-926.96855	-121.74890	69.86361	-871.21196	-218.97131	350.68885	-330.65724	-274.19978	470.45000	-307.46079	-288.97695	360.51822	-288.81214	-271.33517	428.57863	-902.31505	-293.14851	311.11045	-897.07312	-297.37075	900.59261	-369.81640	-248.47819	801.01530	-354.02842	-297.50578	752.13385	-347.45811	-393.47298	850.90723	-403.36832	-345.57388	744.98581	-375.40648	-265.89952	904.44487	-817.09566	-224.39653	776.01872	-833.59845	-372.54964	874.56938	-816.95787	-328.67437	747.61232	-847.07926	-290.54752	1127.16905	-456.69943	-455.57672	1200.66182	-556.10571	-281.28126	1113.87218	-724.88614	-447.91571	1200.28760	-647.52393	-190.55401	1619.50768	-607.13094	-103.19395	1557.41654	-444.27288	-125.82662	1587.03979	-765.10782	-72.79564	1504.60656	-584.30503	-73.32448	1502.74856	-624.97362	-55.51713	1311.99417	-371.58761	-116.67969	1163.79762	-367.79739	-69.63113	1200.63661	-300.11376	98.24666	1209.04483	-433.43346	166.72103	1214.31581	-486.57185	171.57381	1179.01265	-478.80131	-38.33342	1331.81722	-827.78368	-104.65850	1215.06723	-846.08432	-38.70665	1241.62517	-889.85927	115.99713	1227.58758	-752.20843	162.82583	1229.11071	-694.71033	170.69365	1201.03828	-713.01215	-388.55658	1053.95748	-494.13655	-384.20804	1049.75063	-691.52015	-379.41527	1058.05701	-502.08031	-364.60151	1057.33181	-678.78165	
603	6.02000000	-233.41465	610.92934	-354.72694	-207.59781	463.48969	-339.02358	-295.31924	104.55339	-303.08616	-353.29166	71.75932	-364.70940	-159.48329	44.38409	-270.29031	-121.74568	74.56497	-320.00772	-239.07148	607.56966	-848.55633	-197.53777	406.46241	-856.28161	-304.82641	114.80147	-882.86132	-358.89562	73.05198	-820.49801	-165.37196	36.12914	-927.14726	-121.56333	69.49598	-871.03796	-219.54201	351.01776	-330.79881	-274.76815	470.67462	-307.85657	-289.54196	360.97852	-288.91779	-272.02997	428.89991	-901.00950	-293.39979	311.26160	-896.18726	-292.44991	901.85558	-370.01759	-245.34531	801.86179	-354.21329	-295.17998	754.07461	-347.62689	-389.32933	854.38150	-403.44233	-343.39704	747.72691	-375.68172	-260.55801	905.53275	-815.73636	-221.93713	776.34530	-832.05438	-367.77117	878.14694	-815.87412	-326.62215	750.12264	-845.53394	-283.31937	1133.01832	-456.69181	-449.66128	1203.19735	-554.97491	-274.29690	1120.37633	-725.06594	-442.60042	1203.10265	-646.95449	-195.81052	1628.84884	-606.46906	-107.80830	1567.67052	-443.14123	-130.68820	1597.24211	-764.95037	-75.88781	1516.41680	-583.83013	-75.48339	1515.17166	-625.05621	-62.33882	1321.04245	-371.22705	-125.42662	1173.54530	-367.77469	-77.63203	1209.58074	-300.47168	90.08732	1217.38708	-433.94268	158.51887	1222.36687	-487.33935	163.26523	1186.72084	-479.88130	-45.13215	1340.47234	-828.39579	-112.98931	1224.56760	-846.41831	-46.81427	1250.34798	-890.18047	107.87812	1235.14757	-752.69799	154.57399	1236.31604	-695.27746	162.31360	1208.08513	-714.04420	-379.64218	1057.78357	-493.92157	-375.86439	1054.07888	-691.32663	-370.45414	1062.27598	-501.56072	-356.86857	1062.09208	-678.45949	
604	6.03000000	-233.79621	611.21722	-355.48508	-208.42393	463.92248	-339.48428	-295.15330	104.51435	-303.05701	-353.14228	71.88487	-364.66359	-159.57536	44.10504	-270.29567	-121.50139	73.94798	-320.05472	-240.00331	607.99830	-846.67373	-198.53250	406.98896	-854.65794	-304.69694	114.91919	-882.69369	-358.75223	73.21219	-820.47996	-165.28913	36.19836	-927.23933	-121.40806	69.24980	-870.98171	-220.13644	351.49154	-330.92285	-275.53742	471.02211	-308.18346	-290.21144	361.43855	-288.81640	-272.79201	429.29825	-899.71131	-293.58724	311.41222	-895.34350	-287.17099	904.01054	-370.14697	-242.23996	802.38594	-354.46154	-293.01172	756.04058	-347.69130	-385.15622	857.87825	-403.70549	-341.25470	750.30784	-376.10907	-255.26804	906.57672	-814.53191	-219.56261	776.62939	-830.56803	-363.04513	881.61347	-814.76947	-324.72543	752.54346	-843.80486	-276.24920	1138.53351	-456.63519	-443.88652	1205.36314	-554.11391	-267.51604	1126.58542	-725.26939	-437.26633	1205.51423	-646.31050	-201.12032	1637.60658	-605.80636	-112.42677	1577.57185	-441.51066	-135.65139	1606.85980	-764.87686	-79.25985	1527.52111	-583.07863	-77.89348	1526.81974	-625.21270	-69.12367	1329.62600	-370.69240	-133.65383	1182.54112	-368.02960	-85.59518	1218.18415	-300.61558	82.08964	1225.26392	-434.29353	150.46774	1230.02801	-487.94289	155.04005	1194.21401	-480.75397	-51.73205	1348.79374	-829.14842	-121.26940	1233.55638	-846.58964	-54.95786	1258.59531	-890.46663	99.73091	1242.19070	-753.21596	146.37501	1243.08551	-695.84926	153.91538	1214.66969	-714.85614	-370.85660	1061.31029	-493.76199	-367.59751	1058.10090	-691.18541	-361.78655	1066.17794	-501.18075	-349.07045	1066.46935	-678.29369	
605	6.04000000	-234.23085	611.61913	-356.12096	-209.18415	464.34281	-340.03012	-295.00535	104.56378	-303.06121	-352.98688	72.05076	-364.69618	-159.55255	43.74135	-270.26206	-121.31151	73.35935	-320.14152	-241.09415	608.37976	-844.66539	-199.61900	407.59822	-853.16472	-304.65962	115.10514	-882.49399	-358.62936	73.36140	-820.39116	-165.25080	36.20691	-927.21676	-121.33967	69.11843	-871.02060	-220.59403	352.02020	-331.03651	-276.46510	471.43346	-308.45491	-290.76125	361.93215	-288.85815	-273.70196	429.78132	-898.39743	-293.92622	311.73516	-894.46659	-281.95925	905.81132	-370.07299	-239.15847	802.68360	-354.73904	-290.87950	757.59526	-347.89761	-380.81656	861.22485	-404.17996	-339.17907	752.78303	-376.35402	-250.09810	907.62172	-813.46268	-217.28897	776.75496	-828.96815	-358.36089	884.93484	-813.70883	-322.95050	754.84871	-841.98870	-269.26517	1143.74506	-456.39215	-438.30995	1207.17020	-553.65223	-260.80494	1132.38704	-725.20868	-431.85802	1207.54588	-645.70479	-206.49400	1645.72791	-605.14458	-118.18455	1587.12954	-441.27381	-140.64280	1615.86518	-764.92068	-82.57610	1538.07218	-582.40494	-80.62269	1537.47644	-625.51526	-75.87707	1337.72331	-370.01755	-141.53920	1191.21554	-368.56044	-93.57117	1226.48354	-300.89407	74.26340	1232.69174	-434.50656	142.52286	1237.30340	-488.39549	146.81921	1201.63436	-481.04753	-58.28526	1356.74224	-830.10351	-129.50338	1241.99543	-846.74711	-63.06621	1266.30997	-890.77873	91.59824	1248.75306	-753.75421	138.26639	1249.42347	-696.54181	145.62596	1220.96821	-715.56534	-362.25058	1064.59597	-493.54976	-359.28008	1061.73755	-690.98350	-353.38416	1069.70362	-500.90072	-340.96328	1070.42766	-678.13042	
606	6.05000000	-234.66624	612.05947	-356.59621	-209.94708	464.75064	-340.57566	-294.90723	104.67638	-303.10859	-352.84722	72.21411	-364.74102	-159.45516	43.51129	-270.16011	-121.15808	72.76686	-320.17992	-242.19147	608.81160	-842.81109	-200.72515	408.25752	-851.79909	-304.69898	115.33149	-882.25620	-358.51022	73.50360	-820.23753	-165.22615	36.20017	-927.18804	-121.30580	68.91119	-870.98354	-220.98242	352.43439	-331.15667	-277.37641	471.82223	-308.79894	-291.47252	362.74338	-289.07773	-274.76863	430.27193	-897.06061	-294.54773	312.13889	-893.56625	-277.01731	906.70633	-369.85970	-236.10294	803.01260	-354.94859	-288.71117	758.74312	-348.30908	-376.39381	864.36060	-404.59998	-337.15971	755.20993	-376.42693	-245.09292	908.52703	-812.32484	-215.11335	776.74402	-827.26815	-353.74302	888.03997	-812.41323	-321.15082	757.10624	-840.28759	-262.18626	1148.74499	-455.95778	-432.64938	1208.65708	-553.16758	-254.01684	1137.70086	-724.98136	-426.39552	1209.27230	-645.19219	-211.95520	1653.23167	-604.52614	-125.00183	1596.16155	-442.92713	-145.64879	1624.20380	-764.99061	-85.66107	1548.06322	-581.91885	-83.88864	1547.32870	-625.59506	-82.54051	1345.38125	-369.24173	-149.42460	1199.75185	-368.95635	-101.42640	1234.35208	-301.36596	66.57883	1239.69916	-434.62956	134.62444	1244.17517	-488.93296	138.73179	1208.71093	-481.10978	-65.03429	1363.87978	-830.88812	-137.69098	1249.85748	-846.97988	-71.07460	1273.40047	-891.11052	83.57319	1254.92217	-754.33804	130.31777	1255.40518	-697.35029	137.47396	1226.90188	-716.42936	-353.61189	1067.70558	-493.16627	-350.87529	1064.98965	-690.60516	-344.81032	1072.84149	-500.41770	-332.75507	1074.02615	-677.79055	
607	6.06000000	-235.16927	612.31568	-357.19081	-210.83217	465.20530	-340.99048	-294.84002	104.70047	-303.19028	-352.73855	72.33771	-364.74488	-159.36014	43.46370	-269.96748	-121.01702	72.12919	-320.22042	-243.26865	609.25643	-841.15755	-201.88075	408.91219	-850.50789	-304.77735	115.49666	-882.01097	-358.39953	73.63033	-820.10122	-165.18751	36.20442	-927.22517	-121.24095	68.60983	-870.84257	-221.47543	352.78231	-331.30352	-278.23592	472.10788	-309.31715	-292.37162	363.45489	-289.33675	-275.96466	430.73570	-895.70806	-295.32934	312.47870	-892.70382	-272.07103	907.70314	-369.71353	-233.02909	803.34546	-355.14385	-286.53222	759.94743	-348.62151	-372.04878	867.40821	-404.83746	-335.12469	757.55760	-376.64612	-240.21846	909.13478	-811.00710	-213.00947	776.75986	-825.70765	-349.19943	890.92486	-810.80630	-319.36917	759.31078	-838.63016	-255.06207	1153.51585	-455.49643	-426.89423	1209.85205	-552.47328	-247.18918	1142.71843	-724.91470	-420.93244	1210.71293	-644.63486	-217.50407	1660.06748	-604.02975	-130.49202	1604.60818	-442.81802	-150.75617	1631.79673	-764.98924	-89.01534	1557.32582	-581.21001	-87.87278	1556.93840	-624.85816	-89.04890	1352.68626	-368.46600	-157.36993	1207.91147	-369.00589	-108.85694	1241.66627	-301.48563	59.01479	1246.31514	-434.79160	126.82466	1250.67364	-489.46236	130.85331	1215.23864	-481.41672	-71.89573	1370.11935	-831.37405	-145.78822	1257.10356	-847.12824	-79.02530	1279.90206	-891.52367	75.68506	1260.74395	-755.02006	122.54537	1261.10319	-698.26001	129.47444	1232.45704	-717.36041	-344.84983	1070.59206	-492.75047	-342.46229	1068.01132	-690.19535	-336.08011	1075.68713	-499.85515	-324.58775	1077.34647	-677.51059	
